<svg width="260" height="260" viewBox="0 0 260 260" fill="none" xmlns="http://www.w3.org/2000/svg">
<g clip-path="url(#clip0_153_5)">
<rect width="260" height="260" rx="67" fill="#FCECD4"/>
<path d="M51.6371 83.293C51.6371 82.0243 51.5218 80.7557 51.2911 79.487C51.1758 78.103 50.8298 76.892 50.2531 75.854C49.7918 74.7007 49.0421 73.778 48.0041 73.086C47.0814 72.394 45.7551 72.048 44.0251 72.048C41.8338 72.048 39.9884 72.74 38.4891 74.124C37.7971 72.2787 37.4511 70.6063 37.4511 69.107C37.4511 67.2617 37.7394 65.474 38.3161 63.744C39.0081 61.8987 40.0461 60.284 41.4301 58.9C42.8141 57.516 44.5441 56.4203 46.6201 55.613C48.8114 54.6903 51.4641 54.229 54.5781 54.229C61.4981 54.229 66.8611 56.305 70.6671 60.457C74.4731 64.609 76.3761 70.318 76.3761 77.584V180C73.2621 180 70.2058 179.769 67.2071 179.308C64.3238 178.847 61.6711 177.924 59.2491 176.54C56.9424 175.041 55.0971 172.849 53.7131 169.966C52.3291 167.083 51.6371 163.219 51.6371 158.375V83.293ZM34.8561 180H33.1261C30.1274 180 27.2441 179.712 24.4761 179.135C21.7081 178.558 19.2284 177.52 17.0371 176.021C14.9611 174.522 13.2311 172.446 11.8471 169.793C10.5784 167.14 9.94408 163.68 9.94408 159.413V54.402H12.7121C15.4801 54.402 18.1904 54.748 20.8431 55.44C23.4958 56.0167 25.8601 57.1123 27.9361 58.727C30.0121 60.2263 31.6844 62.3023 32.9531 64.955C34.2218 67.6077 34.8561 71.01 34.8561 75.162V180ZM93.1571 83.293C93.1571 82.0243 93.0418 80.7557 92.8111 79.487C92.6958 78.103 92.3497 76.892 91.7731 75.854C91.3118 74.7007 90.5621 73.778 89.5241 73.086C88.6014 72.394 87.2751 72.048 85.5451 72.048C83.3538 72.048 81.5084 72.74 80.0091 74.124C79.3171 72.2787 78.9711 70.6063 78.9711 69.107C78.9711 67.2617 79.2594 65.474 79.8361 63.744C80.5281 61.8987 81.5661 60.284 82.9501 58.9C84.3341 57.516 86.0641 56.4203 88.1401 55.613C90.3314 54.6903 92.9841 54.229 96.0981 54.229C103.018 54.229 108.381 56.305 112.187 60.457C115.993 64.609 117.896 70.318 117.896 77.584V180C114.782 180 111.726 179.769 108.727 179.308C105.844 178.847 103.191 177.924 100.769 176.54C98.4624 175.041 96.6171 172.849 95.2331 169.966C93.8491 167.083 93.1571 163.219 93.1571 158.375V83.293ZM145.34 152.666C145.34 154.05 145.397 155.376 145.513 156.645C145.743 157.914 146.089 159.067 146.551 160.105C147.127 161.028 147.877 161.835 148.8 162.527C149.838 163.104 151.222 163.392 152.952 163.392C153.874 163.392 154.797 163.277 155.72 163.046C156.758 162.7 157.68 162.181 158.488 161.489C158.949 162.412 159.237 163.334 159.353 164.257C159.468 165.064 159.526 165.929 159.526 166.852C159.526 170.543 158.026 173.657 155.028 176.194C152.029 178.731 147.935 180 142.745 180C136.517 180 131.5 178.097 127.694 174.291C124.003 170.37 122.158 164.776 122.158 157.51V92.289H123.196C130.116 92.289 135.536 93.9613 139.458 97.306C143.379 100.535 145.34 105.783 145.34 113.049V152.666ZM184.784 182.941C184.784 190.092 182.708 195.224 178.556 198.338C174.519 201.567 169.502 203.182 163.505 203.182H161.602V92.289H162.64C165.177 92.289 167.772 92.635 170.425 93.327C173.077 94.019 175.442 95.1723 177.518 96.787C179.709 98.2863 181.439 100.305 182.708 102.842C184.092 105.379 184.784 108.436 184.784 112.011V182.941ZM132.538 210.621C132.538 207.046 133.23 204.105 134.614 201.798C135.998 199.607 137.67 197.877 139.631 196.608C141.591 195.339 143.667 194.474 145.859 194.013C148.05 193.667 149.953 193.494 151.568 193.494C152.952 193.494 154.105 193.609 155.028 193.84V201.798C155.028 204.22 155.604 206.008 156.758 207.161C157.911 208.314 159.353 208.891 161.083 208.891C163.159 208.891 165.004 208.199 166.619 206.815C166.965 207.738 167.138 208.545 167.138 209.237C167.253 210.044 167.311 210.909 167.311 211.832C167.311 213.216 166.965 214.773 166.273 216.503C165.696 218.348 164.716 220.021 163.332 221.52C162.063 223.135 160.333 224.461 158.142 225.499C156.066 226.652 153.528 227.229 150.53 227.229C147.416 227.229 144.705 226.71 142.399 225.672C140.207 224.634 138.362 223.308 136.863 221.693C135.479 220.194 134.383 218.464 133.576 216.503C132.884 214.542 132.538 212.582 132.538 210.621ZM227.713 119.104C227.713 117.72 227.598 116.394 227.367 115.125C227.252 113.856 226.906 112.761 226.329 111.838C225.868 110.8 225.118 109.993 224.08 109.416C223.158 108.724 221.831 108.378 220.101 108.378C219.179 108.378 218.198 108.551 217.16 108.897C216.238 109.128 215.373 109.589 214.565 110.281C214.104 109.358 213.816 108.493 213.7 107.686C213.585 106.763 213.527 105.841 213.527 104.918C213.527 101.227 215.084 98.171 218.198 95.749C221.312 93.327 225.061 92.116 229.443 92.116C236.363 92.116 241.669 93.9037 245.359 97.479C249.05 100.939 250.895 105.956 250.895 112.53V180C248.243 180 245.532 179.712 242.764 179.135C240.112 178.443 237.632 177.347 235.325 175.848C233.134 174.233 231.289 172.157 229.789 169.62C228.405 166.967 227.713 163.623 227.713 159.586V119.104ZM211.451 153.012C211.451 154.396 211.509 155.722 211.624 156.991C211.855 158.26 212.201 159.413 212.662 160.451C213.239 161.374 213.989 162.181 214.911 162.873C215.949 163.45 217.333 163.738 219.063 163.738C219.986 163.738 220.909 163.623 221.831 163.392C222.869 163.046 223.792 162.527 224.599 161.835C225.061 162.758 225.349 163.68 225.464 164.603C225.58 165.41 225.637 166.275 225.637 167.198C225.637 170.889 224.08 173.945 220.966 176.367C217.852 178.789 214.104 180 209.721 180C202.801 180 197.496 178.155 193.805 174.464C190.115 170.773 188.269 166.16 188.269 160.624V112.53C188.269 108.724 188.961 105.552 190.345 103.015C191.845 100.362 193.69 98.2287 195.881 96.614C198.188 94.9993 200.668 93.846 203.32 93.154C206.088 92.462 208.799 92.116 211.451 92.116V153.012Z" fill="url(#paint0_linear_153_5)"/>
</g>
<defs>
<linearGradient id="paint0_linear_153_5" x1="130" y1="18" x2="130" y2="341.5" gradientUnits="userSpaceOnUse">
<stop stop-color="#FA709A"/>
<stop offset="1" stop-color="#FEE140"/>
</linearGradient>
<clipPath id="clip0_153_5">
<rect width="260" height="260" fill="white"/>
</clipPath>
</defs>
</svg>
